<svg width="132" height="20" viewBox="0 0 132 20" fill="none" xmlns="http://www.w3.org/2000/svg">
<path d="M8.92715 0.665894L6.48599 5.61541L1.02432 6.41167C0.0448753 6.55373 -0.347645 7.76125 0.362635 8.45275L4.31402 12.3033L3.37946 17.7425C3.21123 18.7257 4.24674 19.4622 5.11403 19.0024L10 16.4341L14.8859 19.0024C15.7532 19.4584 16.7887 18.7257 16.6205 17.7425L15.6859 12.3033L19.6373 8.45275C20.3476 7.76125 19.9551 6.55373 18.9756 6.41167L13.514 5.61541L11.0729 0.665894C10.6355 -0.216346 9.36825 -0.227566 8.92715 0.665894Z" fill="#0C67F6"/>
<path d="M36.9269 0.665894L34.4857 5.61541L29.0241 6.41167C28.0446 6.55373 27.6521 7.76125 28.3624 8.45275L32.3138 12.3033L31.3792 17.7425C31.211 18.7257 32.2465 19.4622 33.1138 19.0024L37.9998 16.4341L42.8857 19.0024C43.753 19.4584 44.7885 18.7257 44.6203 17.7425L43.6857 12.3033L47.6371 8.45275C48.3474 7.76125 47.9549 6.55373 46.9754 6.41167L41.5138 5.61541L39.0727 0.665894C38.6353 -0.216346 37.368 -0.227566 36.9269 0.665894Z" fill="#0C67F6"/>
<path d="M64.9269 0.665894L62.4857 5.61541L57.0241 6.41167C56.0446 6.55373 55.6521 7.76125 56.3624 8.45275L60.3138 12.3033L59.3792 17.7425C59.211 18.7257 60.2465 19.4622 61.1138 19.0024L65.9998 16.4341L70.8857 19.0024C71.753 19.4584 72.7885 18.7257 72.6203 17.7425L71.6857 12.3033L75.6371 8.45275C76.3474 7.76125 75.9549 6.55373 74.9754 6.41167L69.5138 5.61541L67.0727 0.665894C66.6353 -0.216346 65.368 -0.227566 64.9269 0.665894Z" fill="#0C67F6"/>
<path d="M92.9269 0.665894L90.4857 5.61541L85.0241 6.41167C84.0446 6.55373 83.6521 7.76125 84.3624 8.45275L88.3138 12.3033L87.3792 17.7425C87.211 18.7257 88.2465 19.4622 89.1138 19.0024L93.9998 16.4341L98.8859 19.0024C99.7529 19.4584 100.789 18.7257 100.62 17.7425L99.6859 12.3033L103.637 8.45275C104.348 7.76125 103.955 6.55373 102.976 6.41167L97.5138 5.61541L95.0727 0.665894C94.6353 -0.216346 93.368 -0.227566 92.9269 0.665894Z" fill="#0C67F6"/>
<path d="M120.927 0.665894L118.486 5.61541L113.024 6.41167C112.045 6.55373 111.652 7.76125 112.362 8.45275L116.314 12.3033L115.379 17.7425C115.211 18.7257 116.247 19.4622 117.114 19.0024L122 16.4341L126.886 19.0024C127.753 19.4584 128.789 18.7257 128.62 17.7425L127.686 12.3033L131.637 8.45275C132.348 7.76125 131.955 6.55373 130.976 6.41167L125.514 5.61541L123.073 0.665894C122.635 -0.216346 121.368 -0.227566 120.927 0.665894Z" fill="#0C67F6"/>
</svg>
