<svg width="162" height="181" viewBox="0 0 162 181" fill="none" xmlns="http://www.w3.org/2000/svg">
<path d="M156.73 177.574C156.73 176.193 157.851 175.072 159.232 175.072C160.613 175.072 161.734 176.193 161.734 177.574C161.734 178.954 160.613 180.075 159.232 180.075C157.851 180.075 156.73 178.954 156.73 177.574Z" fill="#0C67F6"/>
<path d="M117.547 177.574C117.547 176.193 118.668 175.072 120.049 175.072C121.43 175.072 122.55 176.193 122.55 177.574C122.55 178.954 121.43 180.075 120.049 180.075C118.668 180.075 117.547 178.954 117.547 177.574Z" fill="#0C67F6"/>
<path d="M78.3669 177.574C78.3669 176.193 79.4877 175.072 80.8685 175.072C82.2492 175.072 83.3701 176.193 83.3701 177.574C83.3701 178.954 82.2492 180.075 80.8685 180.075C79.4851 180.075 78.3669 178.954 78.3669 177.574Z" fill="#0C67F6"/>
<path d="M39.1833 177.574C39.1833 176.193 40.3043 175.072 41.685 175.072C43.0658 175.072 44.1866 176.193 44.1866 177.574C44.1866 178.954 43.0658 180.075 41.685 180.075C40.3043 180.075 39.1833 178.954 39.1833 177.574Z" fill="#0C67F6"/>
<path d="M0 177.574C0 176.193 1.12088 175.072 2.50163 175.072C3.88238 175.072 5.00325 176.193 5.00325 177.574C5.00325 178.954 3.88238 180.075 2.50163 180.075C1.11825 180.075 0 178.954 0 177.574Z" fill="#0C67F6"/>
<path d="M156.73 142.559C156.73 141.178 157.851 140.057 159.232 140.057C160.613 140.057 161.734 141.178 161.734 142.559C161.734 143.939 160.613 145.06 159.232 145.06C157.851 145.06 156.73 143.939 156.73 142.559Z" fill="#0C67F6"/>
<path d="M117.547 142.559C117.547 141.178 118.668 140.057 120.049 140.057C121.43 140.057 122.55 141.178 122.55 142.559C122.55 143.939 121.43 145.06 120.049 145.06C118.668 145.06 117.547 143.939 117.547 142.559Z" fill="#0C67F6"/>
<path d="M78.3669 142.559C78.3669 141.178 79.4877 140.057 80.8685 140.057C82.2492 140.057 83.3701 141.178 83.3701 142.559C83.3701 143.939 82.2492 145.06 80.8685 145.06C79.4851 145.06 78.3669 143.939 78.3669 142.559Z" fill="#0C67F6"/>
<path d="M39.1833 142.559C39.1833 141.178 40.3043 140.057 41.685 140.057C43.0658 140.057 44.1866 141.178 44.1866 142.559C44.1866 143.939 43.0658 145.06 41.685 145.06C40.3043 145.06 39.1833 143.939 39.1833 142.559Z" fill="#0C67F6"/>
<path d="M0 142.559C0 141.178 1.12088 140.057 2.50163 140.057C3.88238 140.057 5.00325 141.178 5.00325 142.559C5.00325 143.939 3.88238 145.06 2.50163 145.06C1.11825 145.06 0 143.939 0 142.559Z" fill="#0C67F6"/>
<path d="M156.73 107.544C156.73 106.163 157.851 105.042 159.232 105.042C160.613 105.042 161.734 106.163 161.734 107.544C161.734 108.925 160.613 110.046 159.232 110.046C157.851 110.046 156.73 108.927 156.73 107.544Z" fill="#0C67F6"/>
<path d="M120.049 110.046C121.43 110.046 122.55 108.926 122.55 107.544C122.55 106.162 121.43 105.042 120.049 105.042C118.667 105.042 117.547 106.162 117.547 107.544C117.547 108.926 118.667 110.046 120.049 110.046Z" fill="#0C67F6"/>
<path d="M80.8659 110.046C82.2475 110.046 83.3675 108.926 83.3675 107.544C83.3675 106.162 82.2475 105.042 80.8659 105.042C79.4843 105.042 78.3643 106.162 78.3643 107.544C78.3643 108.926 79.4843 110.046 80.8659 110.046Z" fill="#0C67F6"/>
<path d="M39.1833 107.544C39.1833 106.163 40.3043 105.042 41.685 105.042C43.0658 105.042 44.1866 106.163 44.1866 107.544C44.1866 108.925 43.0658 110.046 41.685 110.046C40.3043 110.046 39.1833 108.927 39.1833 107.544Z" fill="#0C67F6"/>
<path d="M0 107.544C0 106.163 1.12088 105.042 2.50163 105.042C3.88238 105.042 5.00325 106.163 5.00325 107.544C5.00325 108.925 3.88238 110.046 2.50163 110.046C1.11825 110.046 0 108.927 0 107.544Z" fill="#0C67F6"/>
<path d="M156.73 72.5315C156.73 71.1507 157.851 70.0298 159.232 70.0298C160.613 70.0298 161.734 71.1507 161.734 72.5315C161.734 73.9122 160.613 75.0331 159.232 75.0331C157.851 75.0305 156.73 73.9122 156.73 72.5315Z" fill="#0C67F6"/>
<path d="M120.049 75.0331C121.43 75.0331 122.55 73.9131 122.55 72.5315C122.55 71.1499 121.43 70.0298 120.049 70.0298C118.667 70.0298 117.547 71.1499 117.547 72.5315C117.547 73.9131 118.667 75.0331 120.049 75.0331Z" fill="#0C67F6"/>
<path d="M80.8659 75.0331C82.2475 75.0331 83.3675 73.9131 83.3675 72.5315C83.3675 71.1499 82.2475 70.0298 80.8659 70.0298C79.4843 70.0298 78.3643 71.1499 78.3643 72.5315C78.3643 73.9131 79.4843 75.0331 80.8659 75.0331Z" fill="#0C67F6"/>
<path d="M39.1833 72.5315C39.1833 71.1507 40.3043 70.0298 41.685 70.0298C43.0658 70.0298 44.1866 71.1507 44.1866 72.5315C44.1866 73.9122 43.0658 75.0331 41.685 75.0331C40.3043 75.0331 39.1833 73.9122 39.1833 72.5315Z" fill="#0C67F6"/>
<path d="M0 72.5315C0 71.1507 1.12088 70.0298 2.50163 70.0298C3.88238 70.0298 5.00325 71.1507 5.00325 72.5315C5.00325 73.9122 3.88238 75.0331 2.50163 75.0331C1.11825 75.0305 0 73.9122 0 72.5315Z" fill="#0C67F6"/>
<path d="M156.73 37.5162C156.73 36.1355 157.851 35.0146 159.232 35.0146C160.613 35.0146 161.734 36.1355 161.734 37.5162C161.734 38.897 160.613 40.0178 159.232 40.0178C157.851 40.0152 156.73 38.897 156.73 37.5162Z" fill="#0C67F6"/>
<path d="M120.049 40.0178C121.43 40.0178 122.55 38.8978 122.55 37.5162C122.55 36.1346 121.43 35.0146 120.049 35.0146C118.667 35.0146 117.547 36.1346 117.547 37.5162C117.547 38.8978 118.667 40.0178 120.049 40.0178Z" fill="#0C67F6"/>
<path d="M80.8659 40.0178C82.2475 40.0178 83.3675 38.8978 83.3675 37.5162C83.3675 36.1346 82.2475 35.0146 80.8659 35.0146C79.4843 35.0146 78.3643 36.1346 78.3643 37.5162C78.3643 38.8978 79.4843 40.0178 80.8659 40.0178Z" fill="#0C67F6"/>
<path d="M39.1833 37.5162C39.1833 36.1355 40.3043 35.0146 41.685 35.0146C43.0658 35.0146 44.1866 36.1355 44.1866 37.5162C44.1866 38.897 43.0658 40.0178 41.685 40.0178C40.3043 40.0178 39.1833 38.897 39.1833 37.5162Z" fill="#0C67F6"/>
<path d="M0 37.5162C0 36.1355 1.12088 35.0146 2.50163 35.0146C3.88238 35.0146 5.00325 36.1355 5.00325 37.5162C5.00325 38.897 3.88238 40.0178 2.50163 40.0178C1.11825 40.0152 0 38.897 0 37.5162Z" fill="#0C67F6"/>
<path d="M156.73 2.50163C156.73 1.12088 157.851 0 159.232 0C160.613 0 161.734 1.12088 161.734 2.50163C161.734 3.88238 160.613 5.00325 159.232 5.00325C157.851 5.00325 156.73 3.88238 156.73 2.50163Z" fill="#0C67F6"/>
<path d="M117.547 2.50163C117.547 1.12088 118.668 0 120.049 0C121.43 0 122.55 1.12088 122.55 2.50163C122.55 3.88238 121.43 5.00325 120.049 5.00325C118.668 5.00325 117.547 3.88238 117.547 2.50163Z" fill="#0C67F6"/>
<path d="M78.3669 2.50163C78.3669 1.12088 79.4877 0 80.8685 0C82.2492 0 83.3701 1.12088 83.3701 2.50163C83.3701 3.88238 82.2492 5.00325 80.8685 5.00325C79.4851 5.00325 78.3669 3.88238 78.3669 2.50163Z" fill="#0C67F6"/>
<path d="M39.1833 2.50163C39.1833 1.12088 40.3043 0 41.685 0C43.0658 0 44.1866 1.12088 44.1866 2.50163C44.1866 3.88238 43.0658 5.00325 41.685 5.00325C40.3043 5.00325 39.1833 3.88238 39.1833 2.50163Z" fill="#0C67F6"/>
<path d="M0 2.50163C0 1.12088 1.12088 0 2.50163 0C3.88238 0 5.00325 1.12088 5.00325 2.50163C5.00325 3.88238 3.88238 5.00325 2.50163 5.00325C1.11825 5.00325 0 3.88238 0 2.50163Z" fill="#0C67F6"/>
</svg>
